<svg width="76" height="76" viewBox="0 0 76 76" fill="none" xmlns="http://www.w3.org/2000/svg">
<circle cx="38" cy="38" r="38" fill="white"/>
<path d="M16.198 43.782C16.198 43.782 17.387 48.36 24.833 47.189L26.098 44.125L23.955 41.797L18.03 39.842L16.198 43.782Z" fill="#34484C"/>
<path d="M39.9199 35.197C39.9199 36.818 39.0859 37.247 36.9819 38.135L19.0079 45.725C18.6219 45.7253 18.2396 45.6494 17.8829 45.5017C17.5261 45.354 17.2021 45.1374 16.9292 44.8644C16.6563 44.5913 16.4399 44.2671 16.2925 43.9102C16.145 43.5534 16.0694 43.1711 16.0699 42.785V17.528C16.0699 15.906 17.0239 15.368 19.0079 14.593L36.9829 7C37.7622 7 38.5096 7.30951 39.0608 7.86046C39.6119 8.41141 39.9217 9.1587 39.9219 9.938V35.198" fill="#AD7029"/>
<path d="M17.701 45.419C17.701 45.419 24.441 47.349 24.835 47.187C25.227 47.017 24.581 44.263 24.581 44.263L22.146 41.64L19.876 41.534L19.477 42.1L17.701 45.419Z" fill="#34484C"/>
<path d="M36.558 8.75598L16.616 17.131L17.551 22.5L20.518 22.797L30.427 21.202L36.586 17.975L41.118 11.765C40.13 9.98998 38.673 8.89098 36.558 8.75598Z" fill="#F4F5F5"/>
<path d="M21.897 18.99C21.897 18.518 21.985 18.141 22.145 17.823C20.103 17.631 18.175 17.042 16.771 15.776C16.303 16.205 16.073 16.736 16.073 17.532V42.79C16.0733 43.5691 16.3829 44.3163 16.9338 44.8672C17.4847 45.4181 18.2319 45.7277 19.011 45.728L21.911 44.504C21.905 44.416 21.896 44.336 21.896 44.248L21.897 18.99Z" fill="#34484C"/>
<path d="M46.2659 37.69C46.2659 39.315 45.4309 39.74 43.3259 40.63L24.8329 47.187C24.0534 47.187 23.3057 46.8774 22.7544 46.3262C22.2031 45.7751 21.8932 45.0275 21.8929 44.248V18.99C21.8929 17.37 22.8479 16.83 24.8329 16.05L43.3259 9.49597C44.105 9.49544 44.8523 9.80433 45.4037 10.3547C45.955 10.9051 46.2651 11.6519 46.2659 12.431V37.69Z" fill="#F79420"/>
<path d="M38.607 17.203C38.6263 17.2515 38.6357 17.3034 38.6347 17.3556C38.6337 17.4079 38.6223 17.4594 38.6011 17.5071C38.58 17.5549 38.5496 17.598 38.5116 17.6338C38.4736 17.6697 38.4289 17.6976 38.38 17.716L28.544 21.51C28.4455 21.548 28.3361 21.5456 28.2394 21.5032C28.1428 21.4609 28.0668 21.3821 28.028 21.284C27.9903 21.1857 27.9929 21.0765 28.0352 20.9801C28.0775 20.8837 28.1561 20.8078 28.254 20.769L38.094 16.975C38.1923 16.938 38.3012 16.9412 38.3972 16.9839C38.4932 17.0265 38.5685 17.1052 38.607 17.203ZM38.607 19.013C38.626 19.0616 38.6352 19.1134 38.634 19.1655C38.6329 19.2177 38.6215 19.2691 38.6004 19.3168C38.5793 19.3645 38.5489 19.4075 38.5111 19.4434C38.4733 19.4793 38.4287 19.5074 38.38 19.526L28.544 23.318C28.4955 23.337 28.4438 23.3463 28.3917 23.3454C28.3397 23.3444 28.2883 23.3332 28.2406 23.3124C28.1928 23.2916 28.1497 23.2616 28.1135 23.2242C28.0774 23.1867 28.049 23.1424 28.03 23.094C28.0109 23.0455 28.0016 22.9938 28.0026 22.9417C28.0035 22.8897 28.0147 22.8383 28.0355 22.7906C28.0563 22.7429 28.0863 22.6997 28.1238 22.6636C28.1613 22.6274 28.2055 22.599 28.254 22.58L38.094 18.784C38.1925 18.7466 38.3019 18.7498 38.398 18.7929C38.4942 18.836 38.5693 18.9155 38.607 19.014M35.263 22.17C35.343 22.374 35.294 22.587 35.154 22.64L28.436 25.23C28.296 25.284 28.12 25.16 28.038 24.956C27.961 24.752 28.013 24.539 28.151 24.486L34.869 21.898C35.005 21.846 35.186 21.964 35.263 22.17Z" fill="#905A24"/>
<path d="M10.142 58.185C10.142 58.185 11.424 63.126 19.456 61.864L20.823 58.556L18.513 56.045L12.114 53.935L10.142 58.185Z" fill="#34484C"/>
<path d="M35.738 48.938C35.738 50.687 34.838 51.147 32.566 52.108L13.17 60.296C12.7534 60.2963 12.3408 60.2144 11.9559 60.0551C11.5709 59.8958 11.2211 59.6621 10.9265 59.3675C10.6319 59.0729 10.3983 58.7231 10.239 58.3382C10.0797 57.9532 9.99778 57.5406 9.99805 57.124V29.875C9.99805 28.118 11.026 27.537 13.17 26.702L32.566 18.513C32.9824 18.5127 33.3948 18.5945 33.7795 18.7536C34.1643 18.9128 34.514 19.1461 34.8085 19.4404C35.1031 19.7347 35.3368 20.0841 35.4963 20.4687C35.6558 20.8534 35.7379 21.2656 35.738 21.682V48.938Z" fill="#1EA0CD"/>
<path d="M11.763 59.958C11.763 59.958 19.035 62.045 19.454 61.867C19.88 61.685 19.184 58.713 19.184 58.713L16.554 55.879L14.108 55.769L13.678 56.378L11.76 59.958" fill="#34484C"/>
<path d="M32.114 20.396L10.6 29.44L11.607 35.23L14.807 35.55L25.499 33.827L32.145 30.346L37.036 23.645C35.968 21.729 34.396 20.541 32.116 20.396" fill="#F4F5F5"/>
<path d="M16.295 31.443C16.295 30.938 16.381 30.529 16.556 30.185C14.356 29.981 12.278 29.345 10.756 27.976C10.256 28.44 10.006 29.016 10.006 29.876V57.124C10.0055 57.5405 10.0871 57.9531 10.2462 58.338C10.4053 58.723 10.6387 59.0728 10.9332 59.3674C11.2276 59.662 11.5773 59.8957 11.9621 60.0551C12.347 60.2144 12.7595 60.2963 13.176 60.296L16.306 58.976C16.2979 58.8839 16.2936 58.7915 16.293 58.699V31.443H16.295Z" fill="#34484C"/>
<path d="M42.585 51.617C42.585 53.368 41.687 53.827 39.413 54.787L19.457 61.865C18.6161 61.8642 17.8098 61.5297 17.2153 60.935C16.6208 60.3403 16.2865 59.5339 16.286 58.693V31.438C16.286 29.688 17.318 29.106 19.457 28.268L39.413 21.194C39.8296 21.1938 40.2421 21.2758 40.627 21.4352C41.0119 21.5945 41.3617 21.8282 41.6562 22.1227C41.9508 22.4173 42.1845 22.767 42.3438 23.1519C42.5032 23.5368 42.5851 23.9494 42.585 24.366V51.617Z" fill="#57C6E9"/>
<path d="M34.3219 29.513C34.3423 29.5656 34.352 29.6217 34.3507 29.678C34.3493 29.7344 34.3368 29.7899 34.314 29.8415C34.2911 29.893 34.2584 29.9396 34.2175 29.9784C34.1767 30.0173 34.1286 30.0477 34.0759 30.068L23.4659 34.16C23.3598 34.2011 23.2417 34.1988 23.1373 34.1535C23.0329 34.1082 22.9505 34.0236 22.9079 33.918C22.8671 33.811 22.8703 33.6921 22.9168 33.5874C22.9632 33.4827 23.0492 33.4006 23.1559 33.359L33.7659 29.269C33.8185 29.2483 33.8745 29.2382 33.931 29.2393C33.9874 29.2404 34.043 29.2527 34.0947 29.2753C34.1464 29.298 34.1931 29.3307 34.2321 29.3715C34.2711 29.4123 34.3016 29.4604 34.3219 29.513ZM34.3219 31.471C34.3624 31.577 34.3592 31.6946 34.3131 31.7983C34.267 31.9019 34.1817 31.9831 34.0759 32.024L23.4659 36.115C23.4134 36.1357 23.3572 36.1459 23.3007 36.1449C23.2442 36.1439 23.1884 36.1318 23.1366 36.1092C23.0847 36.0866 23.0379 36.0541 22.9986 36.0134C22.9594 35.9727 22.9286 35.9246 22.9079 35.872C22.8673 35.7655 22.8706 35.6472 22.9171 35.5432C22.9636 35.4391 23.0495 35.3577 23.1559 35.317L33.7659 31.225C33.8186 31.2044 33.8748 31.1944 33.9313 31.1956C33.9878 31.1968 34.0435 31.2092 34.0952 31.2321C34.1469 31.255 34.1936 31.2879 34.2325 31.3289C34.2714 31.3699 34.3018 31.4182 34.3219 31.471ZM30.7139 34.874C30.7979 35.096 30.7459 35.322 30.5949 35.378L23.3449 38.173C23.1949 38.233 23.0059 38.101 22.9189 37.881C22.8339 37.657 22.8849 37.431 23.0359 37.374L30.2849 34.579C30.4379 34.524 30.6289 34.655 30.7139 34.874Z" fill="#198BA9"/>
<path d="M27.864 64.807C27.864 64.807 29.254 70.142 37.931 68.777L39.409 65.205L36.912 62.494L30 60.213L27.864 64.807Z" fill="#34484C"/>
<path d="M55.515 54.805C55.515 56.695 54.545 57.194 52.089 58.228L31.139 67.075C30.2308 67.075 29.3598 66.7143 28.7175 66.0722C28.0752 65.4301 27.7143 64.5592 27.714 63.651V34.21C27.714 32.318 28.825 31.688 31.139 30.785L52.089 21.938C52.9974 21.9383 53.8685 22.2992 54.5109 22.9414C55.1533 23.5836 55.5145 24.4546 55.515 25.363V54.805Z" fill="#78111F"/>
<path d="M29.6169 66.719C29.6169 66.719 37.4739 68.97 37.9309 68.776C38.3879 68.582 37.6379 65.373 37.6379 65.373L34.7979 62.311L32.1529 62.188L31.6879 62.85L29.6179 66.72" fill="#34484C"/>
<path d="M51.597 23.98L28.35 33.745L29.442 40.005L32.902 40.347L44.444 38.489L51.624 34.725L56.909 27.49C55.751 25.42 54.056 24.136 51.591 23.98" fill="#F4F5F5"/>
<path d="M34.5139 35.909C34.5139 35.364 34.6109 34.924 34.7969 34.549C32.4169 34.329 30.1729 33.641 28.5329 32.163C27.9909 32.664 27.7209 33.286 27.7209 34.213V63.653C27.7211 64.1029 27.8098 64.5484 27.9821 64.964C28.1544 65.3796 28.4069 65.7572 28.7251 66.0753C29.0433 66.3933 29.4211 66.6456 29.8368 66.8176C30.2525 66.9897 30.698 67.0782 31.1479 67.078L34.5279 65.65C34.5194 65.5516 34.5147 65.4528 34.5139 65.354V35.909Z" fill="#34484C"/>
<path d="M62.909 57.714C62.909 59.604 61.939 60.1 59.486 61.138L37.927 68.78C37.0193 68.7806 36.1486 68.4206 35.5063 67.7792C34.864 67.1379 34.5027 66.2677 34.502 65.36V35.912C34.502 34.022 35.613 33.395 37.927 32.492L59.487 24.848C60.3944 24.8483 61.2647 25.2089 61.9064 25.8506C62.5481 26.4923 62.9087 27.3625 62.909 28.27V57.714Z" fill="#BE202E"/>
<path d="M53.988 33.827C54.0103 33.8839 54.0211 33.9447 54.0198 34.0058C54.0186 34.0669 54.0052 34.1271 53.9806 34.1831C53.956 34.239 53.9206 34.2895 53.8763 34.3317C53.8321 34.3739 53.78 34.407 53.723 34.429L42.257 38.847C42.2006 38.8693 42.1404 38.8803 42.0798 38.8792C42.0191 38.8782 41.9593 38.8651 41.9037 38.8409C41.8482 38.8166 41.7979 38.7816 41.7559 38.7379C41.7139 38.6941 41.681 38.6425 41.659 38.586C41.6366 38.5294 41.6257 38.469 41.6269 38.4082C41.6281 38.3474 41.6414 38.2874 41.6659 38.2318C41.6905 38.1761 41.7259 38.1259 41.77 38.0841C41.8141 38.0422 41.8661 38.0096 41.923 37.988L53.39 33.565C53.5041 33.5205 53.6311 33.5232 53.7432 33.5723C53.8553 33.6214 53.9434 33.713 53.988 33.827ZM53.988 35.94C54.0101 35.9966 54.0207 36.057 54.0193 36.1177C54.0179 36.1784 54.0045 36.2382 53.9799 36.2937C53.9552 36.3492 53.9199 36.3993 53.8758 36.441C53.8317 36.4828 53.7798 36.5154 53.723 36.537L42.256 40.958C42.1416 41.002 42.0143 40.9988 41.9022 40.9492C41.7901 40.8995 41.7023 40.8074 41.658 40.693C41.6135 40.5781 41.6163 40.4503 41.6658 40.3375C41.7153 40.2247 41.8074 40.1361 41.922 40.091L53.389 35.675C53.4458 35.6525 53.5064 35.6415 53.5675 35.6426C53.6285 35.6438 53.6887 35.6571 53.7445 35.6818C53.8004 35.7064 53.8508 35.742 53.8927 35.7863C53.9347 35.8306 53.9664 35.8829 53.988 35.94ZM50.093 39.62C50.185 39.858 50.129 40.104 49.962 40.165L42.133 43.186C41.968 43.248 41.762 43.106 41.671 42.867C41.578 42.63 41.635 42.382 41.801 42.319L49.63 39.302C49.791 39.239 49.997 39.38 50.093 39.62Z" fill="#78111F"/>
</svg>
