<svg width="0" height="0" class="hidden">
  <symbol fill="none" xmlns="http://www.w3.org/2000/svg" viewBox="0 0 45 40" id="Rheart">
    <path d="M43.5684 8.19721C42.8756 6.59311 41.8767 5.13949 40.6275 3.91773C39.3774 2.69232 37.9035 1.7185 36.286 1.04923C34.6087 0.352489 32.8098 -0.00414399 30.9935 3.63284e-05C28.4455 3.63284e-05 25.9594 0.697778 23.799 2.01573C23.2822 2.33101 22.7912 2.6773 22.326 3.05459C21.8609 2.6773 21.3699 2.33101 20.853 2.01573C18.6926 0.697778 16.2066 3.63284e-05 13.6585 3.63284e-05C11.8237 3.63284e-05 10.0458 0.351491 8.36602 1.04923C6.74312 1.72113 5.28045 2.68763 4.02452 3.91773C2.77373 5.13811 1.77457 6.59207 1.08367 8.19721C0.365251 9.86662 -0.00170898 11.6394 -0.00170898 13.4639C-0.00170898 15.185 0.349746 16.9784 1.04749 18.8029C1.63152 20.3276 2.46881 21.9091 3.53868 23.5062C5.23394 26.0335 7.56491 28.6695 10.4592 31.3415C15.2556 35.7709 20.0054 38.8306 20.207 38.9547L21.4319 39.7403C21.9746 40.0866 22.6723 40.0866 23.215 39.7403L24.4399 38.9547C24.6415 38.8255 29.3861 35.7709 34.1876 31.3415C37.082 28.6695 39.4129 26.0335 41.1082 23.5062C42.1781 21.9091 43.0205 20.3276 43.5994 18.8029C44.2971 16.9784 44.6486 15.185 44.6486 13.4639C44.6537 11.6394 44.2868 9.86662 43.5684 8.19721ZM22.326 35.652C22.326 35.652 3.92632 23.8628 3.92632 13.4639C3.92632 8.19721 8.28332 3.92806 13.6585 3.92806C17.4367 3.92806 20.7135 6.03679 22.326 9.11719C23.9386 6.03679 27.2154 3.92806 30.9935 3.92806C36.3687 3.92806 40.7257 8.19721 40.7257 13.4639C40.7257 23.8628 22.326 35.652 22.326 35.652Z" fill="black"></path>
    <path d="M30.9935 3.92807C27.2154 3.92807 23.9386 6.0368 22.326 9.1172C20.7135 6.0368 17.4367 3.92807 13.6585 3.92807C8.28332 3.92807 3.92632 8.19721 3.92632 13.4639C3.92632 23.8628 22.326 35.652 22.326 35.652C22.326 35.652 40.7257 23.8628 40.7257 13.4639C40.7257 8.19721 36.3687 3.92807 30.9935 3.92807Z" fill="currentColor"></path>
  </symbol>
  <symbol fill="none" xmlns="http://www.w3.org/2000/svg" viewBox="0 0 47 40" id="heart">
    <path d="M13.8603 0C17.871 0 21.4305 1.58596 23.8421 4.3119C26.2537 1.58596 29.8132 0 33.824 0C37.3172 0.00423409 40.6661 1.39627 43.1362 3.87077C45.6062 6.34528 46.9958 9.70021 47 13.1997C47 27.6673 25.8764 39.2271 24.978 39.7131C24.6289 39.9014 24.2386 40 23.8421 40C23.4456 40 23.0553 39.9014 22.7062 39.7131C21.8078 39.2271 0.68421 27.6673 0.68421 13.1997C0.688437 9.70021 2.07798 6.34528 4.54805 3.87077C7.01812 1.39627 10.367 0.00423409 13.8603 0ZM14.9563 28.4713C17.7367 30.8349 20.7089 32.9622 23.8421 34.8312C26.9753 32.9622 29.9475 30.8349 32.7279 28.4713C37.0541 24.7534 42.2087 19.0835 42.2087 13.1997C42.2087 10.9719 41.3253 8.8354 39.7529 7.26013C38.1804 5.68486 36.0477 4.79989 33.824 4.79989C30.2704 4.79989 27.2958 6.67984 26.0601 9.70777C25.8802 10.1492 25.5732 10.5269 25.1782 10.7928C24.7831 11.0587 24.318 11.2007 23.8421 11.2007C23.3662 11.2007 22.9011 11.0587 22.506 10.7928C22.111 10.5269 21.804 10.1492 21.6241 9.70777C20.3884 6.67984 17.4138 4.79989 13.8603 4.79989C11.6365 4.79989 9.50378 5.68486 7.93134 7.26013C6.35889 8.8354 5.4755 10.9719 5.4755 13.1997C5.4755 19.0835 10.6301 24.7534 14.9563 28.4713Z" fill="currentColor"></path>
  </symbol>
  <symbol fill="none" xmlns="http://www.w3.org/2000/svg" viewBox="0 0 40 40" id="search">
    <path fill-rule="evenodd" clip-rule="evenodd" d="M17.7921 4.01256e-08C14.9547 0.000241757 12.1586 0.678987 9.63688 1.97961C7.11519 3.28023 4.94112 5.16501 3.29603 7.4767C1.65095 9.78839 0.582556 12.46 0.179998 15.2685C-0.222559 18.0771 0.0523892 20.9412 0.981904 23.6219C1.91142 26.3025 3.46855 28.7221 5.52337 30.6786C7.5782 32.6352 10.0711 34.072 12.7942 34.8691C15.5173 35.6663 18.3915 35.8007 21.1771 35.2612C23.9627 34.7217 26.5789 33.5239 28.8074 31.7677L36.4523 39.4124C36.8472 39.7937 37.376 40.0047 37.9248 39.9999C38.4737 39.9951 38.9987 39.775 39.3869 39.3869C39.775 38.9988 39.9951 38.4738 39.9999 37.9249C40.0047 37.376 39.7937 36.8473 39.4124 36.4525L31.7674 28.8078C33.8356 26.1841 35.1234 23.0312 35.4833 19.7098C35.8433 16.3884 35.2608 13.0328 33.8026 10.027C32.3444 7.02123 30.0694 4.48666 27.238 2.71338C24.4065 0.940108 21.133 -0.000224282 17.7921 4.01256e-08ZM4.18522 17.7929C4.18522 14.1843 5.61879 10.7235 8.17058 8.17178C10.7224 5.62009 14.1833 4.18657 17.7921 4.18657C21.4009 4.18657 24.8618 5.62009 27.4136 8.17178C29.9654 10.7235 31.399 14.1843 31.399 17.7929C31.399 21.4016 29.9654 24.8624 27.4136 27.4141C24.8618 29.9658 21.4009 31.3993 17.7921 31.3993C14.1833 31.3993 10.7224 29.9658 8.17058 27.4141C5.61879 24.8624 4.18522 21.4016 4.18522 17.7929Z" fill="currentColor"></path>
  </symbol>
</svg>